<?xml version="1.0" standalone="no"?>
<!DOCTYPE svg PUBLIC "-//W3C//DTD SVG 20010904//EN"
 "http://www.w3.org/TR/2001/REC-SVG-20010904/DTD/svg10.dtd">
<svg version="1.0" xmlns="http://www.w3.org/2000/svg"
 width="1118.000000pt" height="1118.000000pt" viewBox="0 0 1118.000000 1118.000000"
 preserveAspectRatio="xMidYMid meet">
<metadata>
Created by potrace 1.11, written by Peter Selinger 2001-2013
</metadata>
<g transform="translate(0.000000,1118.000000) scale(0.100000,-0.100000)"
fill="#000000" stroke="none">
<path d="M5190 10924 c-610 -53 -1074 -155 -1585 -352 -950 -364 -1794 -1005
-2405 -1827 -617 -828 -981 -1801 -1060 -2834 -13 -174 -13 -648 0 -822 88
-1143 516 -2194 1260 -3089 132 -159 499 -526 655 -656 658 -547 1363 -908
2174 -1115 85 -21 161 -39 168 -39 10 0 13 41 13 193 0 107 3 197 6 200 8 8 8
69 0 767 -7 597 -13 1125 -21 1825 -3 259 -7 670 -10 915 -12 1022 -25 2168
-29 2543 -1 161 1 190 14 197 13 7 32 -36 114 -253 55 -144 137 -361 183 -482
46 -121 90 -236 98 -255 7 -19 34 -90 59 -156 25 -67 50 -132 55 -145 6 -13
87 -229 181 -479 94 -250 175 -464 180 -475 5 -11 41 -105 81 -210 39 -104 87
-231 106 -280 l35 -90 101 0 101 0 143 375 c78 206 143 375 143 375 1 0 3 7 5
15 4 14 129 342 211 555 19 50 36 95 38 100 2 6 6 17 9 25 4 8 61 159 127 335
67 176 138 365 160 420 35 93 225 593 235 624 4 11 8 11 21 0 13 -11 14 -71 9
-528 -3 -284 -8 -707 -10 -941 -3 -234 -7 -618 -10 -855 -3 -236 -7 -659 -10
-940 -3 -280 -8 -676 -10 -880 -16 -1235 -18 -1490 -17 -1963 0 -288 3 -526 6
-529 8 -8 242 50 433 108 693 209 1331 556 1918 1043 155 129 522 496 651 651
539 649 903 1355 1108 2148 74 284 132 642 156 946 13 174 13 648 0 822 -88
1142 -517 2195 -1260 3089 -133 161 -499 526 -659 660 -760 631 -1632 1036
-2574 1195 -331 57 -456 66 -867 70 -212 1 -405 1 -430 -1z m685 -568 c39 -3
97 -8 130 -11 33 -3 86 -8 119 -11 32 -2 61 -6 65 -8 3 -2 35 -7 71 -11 36 -4
74 -9 85 -12 11 -2 34 -6 50 -9 17 -3 64 -12 105 -21 41 -8 83 -15 92 -15 10
0 20 -3 23 -8 3 -5 12 -7 19 -4 8 3 17 1 20 -5 4 -6 13 -8 20 -5 8 3 17 0 21
-5 3 -6 11 -9 16 -5 5 3 16 0 24 -6 8 -7 15 -10 15 -7 0 4 19 0 90 -18 8 -2
15 -4 15 -5 0 -2 20 -7 59 -15 16 -3 34 -9 40 -13 6 -3 22 -8 36 -10 13 -2 29
-7 36 -12 6 -5 20 -11 32 -13 12 -2 25 -6 28 -10 4 -4 17 -7 29 -7 11 0 26 -5
33 -12 7 -7 12 -9 12 -5 0 4 10 2 23 -5 12 -6 29 -13 37 -14 8 -2 23 -7 35
-12 11 -5 54 -22 95 -38 41 -16 77 -31 80 -34 3 -3 12 -6 20 -8 8 -2 35 -13
60 -25 25 -11 48 -20 53 -19 4 1 7 -3 7 -9 0 -5 4 -8 9 -4 5 3 15 -1 23 -8 7
-8 19 -12 26 -9 6 2 12 -1 12 -7 0 -6 7 -11 15 -11 8 0 15 -5 15 -11 0 -5 4
-8 9 -4 5 3 16 -1 24 -9 8 -8 17 -12 21 -9 3 4 6 1 6 -5 0 -7 3 -11 8 -10 13
4 52 -13 52 -23 0 -5 3 -9 8 -8 15 2 52 -14 52 -23 0 -5 4 -7 9 -3 6 3 20 -5
32 -17 12 -13 19 -18 15 -11 -5 10 86 -39 120 -64 14 -11 54 -34 87 -51 15 -7
27 -18 27 -24 0 -6 3 -8 7 -5 3 4 21 -4 39 -18 18 -14 37 -25 43 -25 5 0 16
-8 23 -17 7 -10 20 -19 28 -21 8 -2 17 -7 20 -10 3 -4 24 -20 48 -35 23 -15
42 -32 42 -38 0 -5 5 -7 10 -4 6 3 10 1 10 -4 0 -6 6 -11 13 -11 7 0 33 -19
57 -42 24 -24 40 -36 35 -28 -9 16 36 -21 67 -54 10 -10 18 -16 18 -13 0 9 34
-18 83 -65 22 -21 42 -38 46 -38 3 0 19 -14 35 -30 16 -17 33 -30 38 -30 4 0
8 -7 8 -16 0 -8 4 -13 9 -10 5 3 25 -13 45 -35 20 -23 36 -39 36 -36 0 3 13
-6 28 -21 15 -15 26 -30 24 -34 -2 -5 4 -8 13 -8 9 0 13 -4 10 -10 -3 -5 -1
-10 4 -10 13 0 51 -36 51 -49 0 -5 8 -15 18 -22 16 -13 16 -12 3 6 -8 11 -3 8
12 -7 15 -15 27 -32 27 -38 0 -6 5 -8 10 -5 6 3 10 2 10 -4 0 -5 16 -26 35
-45 19 -20 35 -41 35 -47 0 -5 5 -7 10 -4 6 3 10 2 10 -2 0 -5 16 -27 36 -48
77 -85 88 -99 74 -91 -8 5 1 -6 20 -23 19 -18 28 -29 20 -25 -8 4 -1 -6 15
-23 44 -46 58 -63 96 -118 19 -27 39 -55 46 -62 16 -18 203 -301 203 -308 0
-3 5 -11 10 -18 27 -32 68 -102 64 -109 -3 -4 0 -8 6 -8 6 0 8 -4 5 -10 -3 -5
-2 -10 3 -10 9 0 47 -70 44 -82 -1 -5 3 -8 9 -8 5 0 7 -4 4 -10 -3 -5 -2 -10
3 -10 10 0 36 -53 32 -66 -1 -4 2 -10 7 -13 11 -8 64 -111 57 -111 -3 0 2 -7
10 -16 9 -8 16 -24 16 -35 0 -10 5 -19 10 -19 6 0 10 -6 10 -12 0 -7 7 -26 15
-41 8 -15 16 -36 17 -45 2 -9 6 -19 9 -22 7 -5 90 -213 97 -240 2 -8 4 -21 4
-27 1 -7 6 -13 11 -13 6 0 7 -3 4 -7 -4 -3 -2 -11 3 -18 5 -6 11 -21 13 -33 2
-12 6 -25 10 -28 4 -4 7 -17 7 -29 0 -11 5 -26 12 -33 7 -7 9 -12 6 -12 -4 0
0 -16 8 -35 8 -19 14 -36 13 -37 -1 -2 5 -23 12 -48 18 -64 20 -73 24 -95 2
-11 4 -21 5 -22 2 -2 4 -7 5 -13 1 -5 3 -11 5 -12 1 -2 4 -16 6 -33 3 -16 9
-41 14 -55 5 -14 12 -41 15 -60 4 -19 8 -44 10 -55 2 -11 4 -20 5 -20 1 0 3
-9 5 -20 5 -36 16 -99 21 -125 8 -40 20 -121 29 -190 3 -25 8 -65 11 -90 19
-154 26 -288 27 -530 0 -209 -7 -386 -18 -475 -2 -16 -6 -57 -10 -90 -3 -33
-8 -71 -10 -85 -2 -14 -6 -45 -10 -70 -3 -25 -8 -58 -12 -75 -3 -16 -7 -41 -9
-55 -1 -14 -5 -36 -8 -50 -4 -14 -8 -38 -11 -55 -13 -75 -27 -141 -32 -155 -8
-18 -7 -16 -18 -65 -12 -58 -12 -56 -25 -105 -11 -44 -28 -100 -38 -130 -3 -8
-4 -19 -3 -24 1 -4 -3 -14 -9 -20 -5 -7 -7 -16 -3 -19 3 -4 1 -7 -5 -7 -6 0
-9 -7 -6 -15 4 -8 1 -15 -6 -15 -6 0 -9 -4 -6 -8 4 -7 -13 -64 -41 -132 -3 -8
-7 -22 -9 -30 -2 -8 -7 -23 -13 -35 -10 -21 -24 -56 -25 -65 -3 -14 -50 -127
-58 -136 -4 -6 -5 -14 -1 -17 3 -4 0 -7 -7 -7 -7 0 -11 -3 -7 -6 3 -4 -5 -28
-19 -55 -13 -27 -25 -52 -25 -56 -1 -8 -23 -54 -41 -83 -5 -8 -11 -23 -14 -33
-4 -9 -10 -17 -15 -17 -5 0 -8 -3 -8 -7 4 -23 -2 -43 -11 -38 -6 3 -7 -1 -4
-9 3 -9 1 -16 -5 -16 -6 0 -11 -7 -11 -15 0 -8 -5 -15 -12 -15 -6 0 -8 -3 -5
-7 4 -3 1 -13 -7 -22 -8 -9 -16 -20 -17 -26 -4 -22 -23 -55 -31 -55 -4 0 -7
-3 -6 -8 2 -4 -8 -25 -21 -47 -13 -22 -22 -42 -21 -43 1 -2 -11 -18 -27 -34
-15 -17 -22 -28 -14 -23 7 4 3 -7 -10 -26 -13 -19 -27 -36 -31 -37 -5 -2 -8
-10 -8 -18 0 -8 -7 -17 -15 -20 -8 -4 -12 -10 -9 -15 3 -5 -5 -20 -18 -33 -13
-13 -24 -30 -26 -37 -2 -8 -11 -21 -22 -30 -11 -9 -16 -19 -13 -23 3 -3 -2 -8
-11 -12 -9 -3 -13 -10 -10 -15 3 -5 -2 -12 -10 -15 -9 -3 -16 -11 -16 -16 0
-14 -131 -188 -141 -188 -5 0 -9 -7 -9 -16 0 -8 -4 -12 -10 -9 -5 3 -10 -1
-10 -9 0 -8 -8 -20 -17 -25 -10 -6 -15 -11 -10 -11 8 0 -31 -47 -90 -108 -24
-23 -44 -46 -45 -50 -2 -4 -6 -6 -11 -4 -4 1 -6 -2 -5 -6 2 -5 -12 -25 -29
-46 -18 -20 -33 -34 -33 -32 0 3 -10 -5 -23 -17 -13 -12 -22 -25 -20 -29 2 -5
-4 -8 -13 -8 -10 0 -15 -3 -12 -6 8 -7 -94 -113 -104 -107 -4 2 -9 -6 -13 -17
-4 -11 -10 -18 -15 -15 -5 3 -12 -4 -15 -16 -4 -11 -9 -18 -12 -15 -3 3 -14
-6 -25 -19 -11 -14 -26 -25 -33 -25 -8 0 -17 -5 -21 -12 -5 -7 -3 -8 6 -3 9 5
11 4 6 -3 -4 -7 -11 -12 -16 -12 -5 0 -20 -10 -33 -23 -30 -27 -95 -84 -133
-115 -16 -13 -42 -35 -59 -48 -16 -14 -45 -34 -62 -45 -18 -11 -33 -24 -33
-28 0 -4 -18 -16 -40 -27 -22 -10 -40 -22 -40 -26 0 -4 -19 -20 -42 -35 -24
-15 -46 -32 -50 -38 -4 -5 -8 -6 -8 -2 0 7 -11 0 -45 -31 -8 -7 -15 -11 -15
-7 0 5 -12 -4 -45 -33 -8 -7 -15 -11 -15 -7 0 4 -7 -1 -16 -9 -8 -9 -21 -16
-29 -16 -7 0 -15 -3 -17 -7 -4 -10 -82 -63 -92 -63 -4 0 -20 -9 -36 -20 -15
-11 -30 -17 -34 -13 -3 3 -6 1 -6 -5 0 -7 -7 -12 -15 -12 -8 0 -15 -4 -15 -9
0 -5 -12 -12 -26 -15 -15 -4 -33 -14 -41 -22 -8 -8 -19 -12 -24 -9 -5 4 -9 1
-9 -5 0 -6 -3 -9 -8 -7 -4 3 -7 1812 -7 4021 l0 4016 -30 1 c-42 0 -797 0
-870 0 l-61 -1 -53 -132 c-74 -183 -248 -617 -333 -828 -38 -96 -76 -188 -83
-205 -7 -16 -59 -145 -115 -285 -56 -140 -108 -268 -115 -285 -15 -36 -458
-1140 -523 -1303 -24 -63 -48 -110 -52 -105 -5 4 -41 89 -80 188 -39 99 -82
205 -95 235 -12 30 -96 237 -185 460 -89 223 -168 419 -176 435 -8 17 -18 44
-23 60 -8 25 -85 217 -121 303 -6 12 -14 32 -19 45 -18 42 -278 692 -335 837
-32 80 -64 159 -71 175 -7 17 -46 111 -85 210 -39 99 -75 184 -80 188 -6 7
-735 12 -926 8 l-32 -1 0 -3967 c0 -2183 -1 -3994 -1 -4025 l-1 -57 -62 33
c-35 19 -83 44 -108 57 -25 13 -49 30 -53 37 -5 7 -12 10 -18 7 -5 -4 -12 1
-15 9 -3 9 -10 13 -15 11 -4 -3 -17 3 -29 15 -11 11 -22 19 -24 18 -5 -4 -140
83 -148 96 -5 6 -8 7 -8 1 0 -5 -10 1 -21 15 -11 14 -17 19 -13 11 5 -9 -2 -8
-19 5 -15 10 -27 22 -27 27 0 4 -6 7 -14 7 -8 0 -16 3 -18 8 -1 4 -23 20 -48
37 -25 16 -58 43 -74 60 -15 16 -25 23 -20 15 9 -16 -49 28 -103 79 -18 16
-33 28 -33 26 0 -5 -46 35 -90 76 -15 15 -37 32 -49 38 -11 7 -21 19 -21 27 0
8 -4 13 -9 9 -5 -3 -18 6 -29 20 -11 14 -25 25 -32 25 -6 0 -8 5 -5 10 3 6 -1
10 -10 10 -9 0 -14 3 -12 8 4 8 -29 42 -40 41 -4 0 -10 8 -14 18 -4 10 -8 14
-8 9 -1 -11 -41 34 -41 46 0 5 -5 6 -10 3 -6 -3 -18 7 -28 24 -9 17 -23 31
-30 31 -7 0 -15 7 -19 16 -3 9 -22 33 -42 53 -43 43 -156 173 -191 220 -14 18
-35 43 -47 54 -13 11 -23 24 -23 29 0 7 -7 17 -58 76 -39 46 -43 52 -36 52 4
0 -3 12 -17 28 -31 34 -92 122 -85 122 3 0 -6 12 -19 26 -14 15 -22 30 -20 34
3 4 -2 11 -11 14 -8 3 -13 10 -10 15 3 5 -1 12 -10 15 -9 4 -14 9 -11 12 3 3
-3 14 -14 25 -11 11 -17 24 -14 28 2 5 -2 12 -11 15 -9 4 -14 9 -11 12 3 4 -3
15 -13 27 -11 11 -17 24 -14 29 3 4 1 8 -4 8 -6 0 -19 18 -31 40 -11 22 -19
40 -16 40 3 0 -2 8 -10 18 -8 9 -15 21 -15 25 1 4 -8 19 -19 34 -12 14 -18 29
-15 34 3 5 0 9 -5 9 -6 0 -11 7 -11 15 0 8 -5 15 -12 15 -6 0 -8 3 -5 7 4 3 2
12 -4 20 -6 7 -8 13 -5 13 4 0 -3 10 -14 22 -11 12 -18 28 -16 35 3 7 1 15 -4
18 -8 5 -80 150 -80 162 0 3 -14 34 -30 70 -17 35 -30 69 -30 74 0 5 -4 17 -9
27 -16 31 -29 65 -56 147 -3 11 -6 22 -6 25 -1 3 -5 10 -11 17 -5 7 -7 17 -3
23 3 5 1 10 -5 10 -7 0 -10 7 -6 15 3 8 1 15 -4 15 -6 0 -9 3 -8 8 0 4 -1 14
-4 22 -14 40 -31 102 -31 115 0 8 -3 15 -7 15 -3 0 -12 28 -20 63 -8 34 -15
64 -16 67 0 3 -3 12 -6 20 -12 31 -54 221 -63 282 -2 15 -6 31 -8 36 -3 4 -8
30 -12 57 -4 28 -8 59 -10 70 -6 29 -14 82 -21 140 -6 49 -8 61 -18 160 -26
240 -26 691 -1 935 4 30 8 73 10 95 2 22 4 40 5 40 1 0 3 16 6 35 6 55 13 105
14 105 1 0 3 9 4 20 2 11 6 44 10 72 4 29 11 66 16 83 5 16 6 30 4 30 -3 0 -2
5 2 12 4 7 9 21 10 32 1 12 5 32 8 46 3 14 8 34 11 45 2 11 7 31 10 45 3 14 8
36 11 50 2 14 7 32 11 40 3 8 7 22 8 30 3 12 22 82 39 135 1 6 8 30 15 55 7
25 16 50 19 55 4 6 7 15 7 20 1 17 27 89 38 103 5 6 7 12 3 12 -6 0 25 89 55
157 11 23 19 45 19 48 0 3 11 31 25 61 14 30 25 59 25 64 0 6 4 10 10 10 5 0
9 3 8 8 -3 15 15 62 24 62 5 0 7 4 3 9 -3 5 1 16 9 24 8 8 12 17 9 21 -4 3 -1
6 6 6 7 0 10 4 6 9 -3 5 -1 12 5 16 5 3 10 15 10 26 0 11 7 22 15 25 8 4 13
10 10 14 -3 4 5 20 17 36 13 16 16 25 8 20 -8 -4 -6 0 4 8 11 9 17 16 13 16
-4 0 6 24 23 53 17 28 35 64 41 80 6 15 15 27 20 27 5 0 9 6 9 13 0 7 8 22 18
33 9 11 18 26 20 34 2 8 11 21 20 28 9 7 15 14 14 15 -7 4 21 57 30 57 5 0 6
5 3 10 -3 6 -2 10 4 10 5 0 12 9 16 19 3 10 18 31 33 47 15 15 20 24 12 19 -8
-4 -5 3 8 17 12 13 22 28 22 32 0 7 12 23 47 60 12 13 19 27 16 30 -3 3 2 8
11 12 9 3 13 10 10 15 -3 5 2 12 10 15 9 3 16 11 16 18 0 6 16 28 35 49 18 20
31 37 28 37 -3 0 4 9 17 20 13 11 19 20 14 20 -5 0 -4 4 2 8 6 4 37 39 69 77
32 39 63 75 70 80 6 6 14 18 18 28 4 11 16 21 27 24 11 3 18 8 16 12 -3 4 19
30 49 59 29 29 50 52 47 52 -4 0 7 9 23 20 17 11 27 20 22 20 -4 0 3 10 15 23
13 12 25 22 28 21 3 0 16 11 30 24 14 14 18 21 10 17 -8 -5 14 18 49 51 36 32
68 58 73 56 4 -1 7 4 6 10 -2 7 3 12 10 10 6 -1 12 5 12 15 0 9 3 14 6 11 3
-3 18 6 33 20 51 49 86 77 94 74 4 -1 7 5 7 15 0 9 3 14 6 10 4 -3 15 4 26 16
11 12 16 15 12 7 -4 -8 10 2 32 23 66 64 78 74 70 57 -5 -9 -2 -8 7 3 8 9 18
17 23 17 5 0 25 16 44 35 19 19 40 35 46 35 7 0 14 3 16 8 2 4 44 34 93 67 50
32 92 62 95 66 3 3 15 9 28 13 12 4 22 12 22 17 0 5 7 9 15 9 8 0 15 5 15 11
0 5 4 8 9 5 5 -3 12 1 15 9 3 8 10 14 14 13 5 -2 31 11 57 27 27 17 51 30 54
30 3 0 17 8 31 17 14 9 37 22 53 29 15 7 27 16 27 22 0 5 7 7 15 3 8 -3 15 -1
15 4 0 6 7 10 15 10 8 0 15 5 15 11 0 6 7 8 15 5 9 -3 18 1 22 10 3 8 12 13
19 10 8 -3 14 -1 14 4 0 6 6 10 14 10 7 0 19 7 26 15 7 9 19 14 27 11 7 -3 13
-1 13 5 0 6 5 7 10 4 6 -3 10 -2 10 3 0 5 10 13 23 17 27 9 24 8 72 30 22 10
49 21 60 26 11 5 47 20 80 34 33 14 61 26 62 26 2 1 12 3 22 6 11 3 23 4 27 3
4 -1 10 3 13 9 4 6 16 12 26 14 11 1 25 5 30 8 20 12 90 33 103 31 6 -2 12 1
12 6 0 9 53 26 78 25 6 0 12 2 12 6 0 4 6 8 13 9 6 0 37 8 67 17 30 9 60 17
65 19 6 1 19 5 30 9 11 3 31 8 45 11 14 2 54 12 90 21 36 9 72 18 80 20 21 3
93 18 105 21 12 2 115 21 165 29 19 3 53 8 75 10 22 3 51 7 64 10 23 4 82 11
176 20 22 2 82 7 134 10 52 3 96 6 97 8 5 5 477 -1 549 -7z"/>
<path d="M1923 6240 c-152 -34 -223 -232 -227 -635 -4 -391 71 -610 222 -643
125 -29 223 39 270 188 37 114 44 180 48 410 4 288 -18 446 -77 562 -46 91
-142 138 -236 118z m80 -161 c51 -40 70 -168 69 -479 0 -102 -2 -205 -6 -230
-3 -25 -8 -65 -11 -90 -7 -57 -34 -141 -51 -157 -7 -7 -24 -13 -38 -13 -47 0
-78 77 -93 234 -8 75 -9 415 -3 526 6 119 33 199 73 218 30 15 31 15 60 -9z"/>
<path d="M9279 6232 l-47 -3 0 -624 0 -625 22 -1 c11 -1 48 -1 81 -2 l60 0 0
626 0 625 -35 4 c-19 2 -56 2 -81 0z"/>
</g>
</svg>
